<svg width="16" height="16" viewBox="0 0 16 16" fill="none" xmlns="http://www.w3.org/2000/svg">
<path d="M13.8561 13.1706C7.25223 16.3135 3.15378 13.6839 0.530238 12.0867C0.367894 11.9861 0.0919656 12.1103 0.331371 12.3853C1.2054 13.4451 4.0698 15.9994 7.80866 15.9994C11.5501 15.9994 13.7759 13.9579 14.0544 13.6018C14.3309 13.2487 14.1356 13.0539 13.856 13.1706H13.8561ZM15.7108 12.1463C15.5335 11.9154 14.6324 11.8723 14.0654 11.942C13.4975 12.0096 12.645 12.3567 12.7191 12.5651C12.7572 12.6432 12.8348 12.6082 13.2249 12.5731C13.6161 12.5341 14.7121 12.3957 14.9404 12.6943C15.1699 12.9949 14.5909 14.4268 14.4852 14.6577C14.383 14.8886 14.5242 14.9482 14.7161 14.7944C14.9054 14.6406 15.248 14.2425 15.4779 13.679C15.7063 13.1125 15.8456 12.3221 15.7108 12.1463Z" fill="#FF9900"/>
<path fill-rule="evenodd" clip-rule="evenodd" d="M9.41568 6.75758C9.41568 7.58223 9.43651 8.26995 9.0197 9.00228C8.68328 9.59775 8.15038 9.96392 7.55497 9.96392C6.74218 9.96392 6.26883 9.34467 6.26883 8.43072C6.26883 6.62656 7.88537 6.29911 9.41568 6.29911V6.75758ZM11.5502 11.9169C11.4103 12.0419 11.2079 12.0509 11.0501 11.9675C10.3475 11.384 10.2224 11.1131 9.83544 10.5564C8.67437 11.7413 7.85267 12.0955 6.34627 12.0955C4.56595 12.0955 3.17859 10.997 3.17859 8.79689C3.17859 7.07913 4.11048 5.90909 5.43521 5.33753C6.58442 4.83136 8.1891 4.74206 9.41568 4.60218V4.32826C9.41568 3.8251 9.45434 3.2297 9.15964 2.79506C8.9006 2.40505 8.40641 2.24427 7.97172 2.24427C7.16496 2.24427 6.44448 2.65807 6.26883 3.51548C6.23306 3.70606 6.09318 3.89363 5.90266 3.90254L3.84842 3.68228C3.67579 3.64349 3.48527 3.50362 3.5329 3.23861C4.00625 0.749795 6.2539 -0.000488281 8.26641 -0.000488281C9.29651 -0.000488281 10.6421 0.273432 11.4549 1.05346C12.485 2.01504 12.3868 3.29816 12.3868 4.69443V7.99308C12.3868 8.98446 12.7976 9.4191 13.1846 9.95501C13.3215 10.1455 13.3513 10.3748 13.1786 10.5177C12.747 10.8779 11.9789 11.5478 11.5561 11.9229L11.5502 11.9169" fill="black"/>
<path d="M13.8561 13.1706C7.25223 16.3135 3.15378 13.6839 0.530238 12.0867C0.367894 11.9861 0.0919656 12.1103 0.331371 12.3853C1.2054 13.4451 4.0698 15.9994 7.80866 15.9994C11.5501 15.9994 13.7759 13.9579 14.0544 13.6018C14.3309 13.2487 14.1356 13.0539 13.856 13.1706H13.8561ZM15.7108 12.1463C15.5335 11.9154 14.6324 11.8723 14.0654 11.942C13.4975 12.0096 12.645 12.3567 12.7191 12.5651C12.7572 12.6432 12.8348 12.6082 13.2249 12.5731C13.6161 12.5341 14.7121 12.3957 14.9404 12.6943C15.1699 12.9949 14.5909 14.4268 14.4852 14.6577C14.383 14.8886 14.5242 14.9482 14.7161 14.7944C14.9054 14.6406 15.248 14.2425 15.4779 13.679C15.7063 13.1125 15.8456 12.3221 15.7108 12.1463Z" fill="white"/>
<path fill-rule="evenodd" clip-rule="evenodd" d="M9.41568 6.75758C9.41568 7.58223 9.43651 8.26995 9.0197 9.00228C8.68328 9.59775 8.15038 9.96392 7.55497 9.96392C6.74218 9.96392 6.26883 9.34467 6.26883 8.43072C6.26883 6.62656 7.88537 6.29911 9.41568 6.29911V6.75758ZM11.5502 11.9169C11.4103 12.0419 11.2079 12.0509 11.0501 11.9675C10.3475 11.384 10.2224 11.1131 9.83544 10.5564C8.67437 11.7413 7.85267 12.0955 6.34627 12.0955C4.56595 12.0955 3.17859 10.997 3.17859 8.79689C3.17859 7.07913 4.11048 5.90909 5.43521 5.33753C6.58442 4.83136 8.1891 4.74206 9.41568 4.60218V4.32826C9.41568 3.8251 9.45434 3.2297 9.15964 2.79506C8.9006 2.40505 8.40641 2.24427 7.97172 2.24427C7.16496 2.24427 6.44448 2.65807 6.26883 3.51548C6.23306 3.70606 6.09318 3.89363 5.90266 3.90254L3.84842 3.68228C3.67579 3.64349 3.48527 3.50362 3.5329 3.23861C4.00625 0.749795 6.2539 -0.000488281 8.26641 -0.000488281C9.29651 -0.000488281 10.6421 0.273432 11.4549 1.05346C12.485 2.01504 12.3868 3.29816 12.3868 4.69443V7.99308C12.3868 8.98446 12.7976 9.4191 13.1846 9.95501C13.3215 10.1455 13.3513 10.3748 13.1786 10.5177C12.747 10.8779 11.9789 11.5478 11.5561 11.9229L11.5502 11.9169" fill="white"/>
</svg>
