<svg width="24" height="25" viewBox="0 0 24 25" fill="none" xmlns="http://www.w3.org/2000/svg">
<path d="M20.1004 19.21C20.3283 19.2565 20.4997 19.4586 20.4998 19.7002C20.4998 19.9419 20.3284 20.1439 20.1004 20.1904L19.9998 20.2002H3.99982C3.72367 20.2002 3.49982 19.9763 3.49982 19.7002C3.49991 19.4241 3.72373 19.2002 3.99982 19.2002H19.9998L20.1004 19.21ZM20.1004 13.21C20.3283 13.2565 20.4997 13.4586 20.4998 13.7002C20.4998 13.9419 20.3284 14.1439 20.1004 14.1904L19.9998 14.2002H3.99982C3.72367 14.2002 3.49982 13.9763 3.49982 13.7002C3.49991 13.4241 3.72373 13.2002 3.99982 13.2002H19.9998L20.1004 13.21ZM20.1004 7.20996C20.3283 7.25648 20.4997 7.45856 20.4998 7.7002C20.4998 7.9419 20.3284 8.14389 20.1004 8.19043L19.9998 8.2002H3.99982C3.72367 8.2002 3.49982 7.97634 3.49982 7.7002C3.49991 7.42413 3.72373 7.2002 3.99982 7.2002H19.9998L20.1004 7.20996Z" fill="#09090B"/>
</svg>
