<svg width="16" height="16" viewBox="0 0 16 16" fill="none" xmlns="http://www.w3.org/2000/svg">
<path d="M7.99268 -0.000488281C10.1706 -0.000488281 10.4374 3.03739e-06 11.2964 0.0200195C12.1354 0.0667312 12.7219 0.199748 13.228 0.399902C13.7541 0.600102 14.1875 0.86711 14.647 1.3208C15.0865 1.7679 15.3798 2.20205 15.5796 2.73584C15.7794 3.24982 15.9127 3.83799 15.9526 4.67236C15.9992 5.5265 15.9995 5.80037 15.9995 7.97607C15.9995 10.1519 15.9926 10.4191 15.9526 11.2866C15.9193 12.1277 15.7863 12.7158 15.5864 13.2231C15.38 13.7502 15.107 14.1972 14.6743 14.6509C14.228 15.0914 13.7882 15.3725 13.2554 15.5728C12.7492 15.773 12.1629 15.9057 11.3237 15.9458C10.4711 15.9992 10.1906 15.9995 8.01904 15.9995C5.84793 15.9995 5.58122 15.9925 4.71533 15.9458C3.87618 15.9057 3.28988 15.773 2.78369 15.5728C2.25753 15.3659 1.8046 15.092 1.33838 14.6782C0.898795 14.231 0.619263 13.7834 0.419434 13.2495C0.219625 12.7489 0.0863719 12.1615 0.0463867 11.314C-0.000241093 10.4596 -0.000488281 10.1787 -0.000488281 8.00928C-0.000488281 5.84025 -5.52854e-05 5.57317 0.0532227 4.70557C0.0931847 3.86461 0.226474 3.27728 0.42627 2.77002C0.632753 2.24272 0.90527 1.8017 1.33154 1.33447C1.77784 0.900597 2.23127 0.62066 2.76416 0.42041C3.26372 0.220186 3.84991 0.0864337 4.6958 0.0463867C5.54825 -0.000326487 5.82148 -0.000488281 7.99268 -0.000488281ZM7.99268 1.44092C5.86128 1.44092 5.60814 1.44791 4.76221 1.49463C3.98306 1.528 3.56328 1.65445 3.27686 1.76123C2.89717 1.90808 2.63021 2.08244 2.36377 2.36279C2.07758 2.64299 1.8983 2.9101 1.76514 3.28369C1.65191 3.5707 1.52484 3.9911 1.48486 4.77197C1.43824 5.61967 1.43799 5.8735 1.43799 8.00928C1.43799 10.145 1.44509 10.3991 1.4917 11.2466C1.525 12.0276 1.65172 12.4488 1.7583 12.7358C1.90481 13.1161 2.07825 13.383 2.35791 13.6499C2.63761 13.9368 2.90391 14.117 3.27686 14.2505C3.56328 14.364 3.98287 14.4907 4.76221 14.5308C5.60815 14.5775 5.86128 14.5776 7.99268 14.5776C10.124 14.5776 10.3774 14.5706 11.2231 14.5239C12.0022 14.4906 12.4221 14.3641 12.7085 14.2573C13.0882 14.1105 13.3551 13.9371 13.6216 13.6567C13.9079 13.3765 14.088 13.1095 14.2212 12.7358C14.3344 12.4488 14.4605 12.0276 14.5005 11.2466C14.5471 10.3991 14.5474 10.145 14.5474 8.00928C14.5474 5.8735 14.5403 5.61967 14.4937 4.77197C14.4603 3.99129 14.3346 3.57069 14.228 3.28369C14.0815 2.90322 13.9082 2.63565 13.6284 2.36865C13.3487 2.0817 13.0815 1.90155 12.7085 1.76807C12.4221 1.65464 12.0021 1.52782 11.2231 1.48779C10.8004 1.46444 10.5256 1.45262 10.0903 1.44678L7.99268 1.44092ZM7.99268 3.89795C10.2574 3.89795 12.0961 5.73989 12.0962 8.00928C12.0962 10.2788 10.2575 12.1216 7.99268 12.1216C5.72798 12.1215 3.88916 10.2787 3.88916 8.00928C3.88929 5.73995 5.72806 3.89804 7.99268 3.89795ZM7.99268 5.33936C6.52739 5.33945 5.32875 6.54095 5.32861 8.00928C5.32861 9.47772 6.52731 10.6791 7.99268 10.6792C9.45812 10.6792 10.6577 9.47778 10.6577 8.00928C10.6576 6.54089 9.45804 5.33936 7.99268 5.33936ZM12.2896 2.74268C12.8223 2.74283 13.2554 3.17736 13.2554 3.70459L13.2222 3.73779C13.222 4.27166 12.7883 4.69189 12.2622 4.69189C11.7296 4.69167 11.3296 4.26476 11.3296 3.73096C11.3296 3.19696 11.7567 2.74268 12.2896 2.74268Z" fill="white"/>
</svg>
