<svg width="16" height="20" viewBox="0 0 16 20" fill="none" xmlns="http://www.w3.org/2000/svg">
<g style="mix-blend-mode:luminosity">
<path d="M6.23005 8.07616V7.36935C5.98774 7.33622 5.74153 7.31543 5.49011 7.31543C2.46279 7.31543 0 9.77822 0 12.8055C0 14.6629 0.928337 16.3065 2.3439 17.3004C1.42986 16.3194 0.86922 15.0052 0.86922 13.5624C0.86922 10.5786 3.2625 8.14502 6.23005 8.07551V8.07616Z" fill="#25F4EE"/>
<path d="M6.35947 16.0704C7.71007 16.0704 8.81186 14.9959 8.86188 13.6576L8.86643 1.70361H11.0505C11.005 1.45804 10.9804 1.20533 10.9804 0.946777H7.99721L7.99266 12.9008C7.94264 14.2397 6.84085 15.3136 5.49025 15.3136C5.07058 15.3136 4.67495 15.2083 4.32739 15.0258C4.78344 15.6572 5.52338 16.0711 6.36012 16.0711L6.35947 16.0704Z" fill="#25F4EE"/>
<path d="M15.1301 5.76063V5.09605C14.2973 5.09605 13.5209 4.84853 12.87 4.42432C13.4495 5.08955 14.2368 5.56963 15.1301 5.76063Z" fill="#25F4EE"/>
<path d="M12.8701 4.42382C12.2354 3.69492 11.8495 2.7432 11.8495 1.70312H11.0504C11.2609 2.83935 11.9352 3.81446 12.8701 4.42382Z" fill="#FE2C55"/>
<path d="M5.49028 10.2986C4.10784 10.2986 2.98267 11.4231 2.98267 12.8062C2.98267 13.769 3.52901 14.6057 4.32677 15.0254C4.02924 14.6135 3.85189 14.1087 3.85189 13.563C3.85189 12.1806 4.97706 11.0554 6.3595 11.0554C6.61741 11.0554 6.86492 11.0983 7.09944 11.1711V8.12619C6.85712 8.09305 6.61091 8.07227 6.3595 8.07227C6.31597 8.07227 6.2731 8.07486 6.22957 8.07551V10.4142C5.9957 10.3408 5.74754 10.2986 5.48963 10.2986H5.49028Z" fill="#FE2C55"/>
<path d="M15.1302 5.76074V8.07931C13.5834 8.07931 12.1503 7.58428 10.9803 6.74495V12.8067C10.9803 15.8341 8.51753 18.2969 5.4902 18.2969C4.3202 18.2969 3.2353 17.9279 2.34399 17.3016C3.34704 18.3781 4.7756 19.0537 6.36007 19.0537C9.3874 19.0537 11.8502 16.5909 11.8502 13.5636V7.50178C13.0202 8.34176 14.4533 8.83614 16.0001 8.83614V5.85299C15.7019 5.85299 15.4109 5.82051 15.1309 5.76074H15.1302Z" fill="#FE2C55"/>
<path d="M10.9804 12.8061V6.74434C12.1504 7.58432 13.5835 8.0787 15.1303 8.0787V5.76013C14.237 5.56914 13.4497 5.08905 12.8702 4.42382C11.9354 3.81446 11.261 2.83935 11.0506 1.70312H8.86646L8.86191 13.6572C8.81189 14.9961 7.7101 16.0699 6.3595 16.0699C5.52276 16.0699 4.78282 15.6568 4.32677 15.0247C3.52836 14.6043 2.98267 13.7683 2.98267 12.8055C2.98267 11.423 4.10784 10.2979 5.49028 10.2979C5.74819 10.2979 5.9957 10.3407 6.23022 10.4135V8.0748C3.26266 8.14431 0.869385 10.5779 0.869385 13.5617C0.869385 15.0052 1.43002 16.3187 2.34407 17.2997C3.23603 17.926 4.32028 18.2949 5.49028 18.2949C8.5176 18.2949 10.9804 15.8322 10.9804 12.8048V12.8061Z" fill="white"/>
</g>
</svg>
